{"title":"Fast Five 2011 BRRip 720p AC3-anna79","uid":8407934,"size":2396940370,"categoryP":"video","categoryS":"hd___movies","magnet":"?xt=urn:btih:ffe31843c56841b51b1d4dd787beaad5a12a3b70&amp;dn=Fast+Five+2011+BRRip+720p+AC3-anna79&amp;tr=udp%3A%2F%2Ftracker.openbittorrent.com%3A80&amp;tr=udp%3A%2F%2Fopen.demonii.com%3A1337&amp;tr=udp%3A%2F%2Ftracker.coppersurfer.tk%3A6969&amp;tr=udp%3A%2F%2Fexodus.desync.com%3A6969","seeders":0,"leechers":1,"uploader":"R0thschild","files":3,"time":1366844214,"description":"--------------------------------------------\n &lt;a href=&quot;\nhttp://www.imdb.com/title/tt1596343/&quot; rel=&quot;nofollow&quot; target=&quot;_NEW&quot;&gt;\nhttp://www.imdb.com/title/tt1596343/&lt;/a&gt;\n\n130 min  -  Action | Crime | Thriller  -  6 May 2011 (Bulgaria)\n7,3 Your rating:    -/10   Ratings: 7,3/10 from 161 822 users   Metascore: 67/100 \n\nSUBTiTLES.......: Bulgarian\n\nLanguage : English\n\nFormat                           : Matroska\nFormat version                   : Version 2\nFile size                        : 2.23 GiB\nDuration                         : 2h 10mn\nOverall bit rate                 : 2 452 Kbps\nWriting application              : Lavf51.12.1\nWriting library                  : Lavf51.12.1\n\nVideo\nID                               : 1\nFormat                           : AVC\nFormat/Info                      : Advanced Video Codec\nFormat profile                   : &lt;a class=&quot;__cf_email__&quot; href=&quot;/cdn-cgi/l/email-protection&quot; data-cfemail=&quot;b0f2d1c3d5dcd9ded5f0fc839e81&quot;&gt;[email&amp;#160;protected]&lt;/a&gt;&lt;script cf-hash='f9e31' type=&quot;text/javascript&quot;&gt;\n/* &lt;![CDATA[ */!function(){try{var t=&quot;currentScript&quot;in document?document.currentScript:function(){for(var t=document.getElementsByTagName(&quot;script&quot;),e=t.length;e--;)if(t[e].getAttribute(&quot;cf-hash&quot;))return t[e]}();if(t&amp;&amp;t.previousSibling){var e,r,n,i,c=t.previousSibling,a=c.getAttribute(&quot;data-cfemail&quot;);if(a){for(e=&quot;&quot;,r=parseInt(a.substr(0,2),16),n=2;a.length-n;n+=2)i=parseInt(a.substr(n,2),16)^r,e+=String.fromCharCode(i);e=document.createTextNode(e),c.parentNode.replaceChild(e,c)}}}catch(u){}}();/* ]]&gt; */&lt;/script&gt;\nFormat settings, CABAC           : No\nFormat settings, ReFrames        : 1 frame\nFormat settings, GOP             : M=1, N=12\nCodec ID                         : V_MPEG4/ISO/AVC\nDuration                         : 2h 10mn\nBit rate mode                    : Variable\nBit rate                         : 1 955 Kbps\nMaximum bit rate                 : 3 000 Kbps\nWidth                            : 1 280 pixels\nHeight                           : 544 pixels\nDisplay aspect ratio             : 2.35:1\nFrame rate                       : 23.976 fps\nOriginal frame rate              : 24.000 fps\nColor space                      : YUV\nChroma subsampling               : 4:2:0\nBit depth                        : 8 bits\nScan type                        : Progressive\nBits/(Pixel*Frame)               : 0.117\nStream size                      : 1.78 GiB (80%)\nLanguage                         : English / English\n\nAudio\nID                               : 2\nFormat                           : AC-3\nFormat/Info                      : Audio Coding 3\nMode extension                   : CM (complete main)\nCodec ID                         : A_AC3\nDuration                         : 2h 10mn\nBit rate mode                    : Constant\nBit rate                         : 448 Kbps\nChannel(s)                       : 6 channels\nChannel positions                : Front: L C R, Side: L R, LFE\nSampling rate                    : 44.1 KHz\nBit depth                        : 16 bits\nCompression mode                 : Lossy\nStream size                      : 418 MiB (18%)\nLanguage                         : English\n\n--------------------------------------------\n\nMore at   &lt;a href=&quot;\nhttp://publichash.com/&quot; rel=&quot;nofollow&quot; target=&quot;_NEW&quot;&gt;\nhttp://publichash.com/&lt;/a&gt;\n\n--------------------------------------------","torrent":{"xt":"urn:btih:ffe31843c56841b51b1d4dd787beaad5a12a3b70","amp;dn":"Fast+Five+2011+BRRip+720p+AC3-anna79","amp;tr":["udp%3A%2F%2Ftracker.openbittorrent.com%3A80","udp%3A%2F%2Fopen.demonii.com%3A1337","udp%3A%2F%2Ftracker.coppersurfer.tk%3A6969","udp%3A%2F%2Fexodus.desync.com%3A6969"],"infoHash":"ffe31843c56841b51b1d4dd787beaad5a12a3b70","infoHashBuffer":{"type":"Buffer","data":[255,227,24,67,197,104,65,181,27,29,77,215,135,190,170,213,161,42,59,112]},"announce":[],"urlList":[]}}